<?xml version="1.0" encoding="UTF-8"?>
<svg xmlns="http://www.w3.org/2000/svg" xmlns:xlink="http://www.w3.org/1999/xlink" width="266px" height="266px" viewBox="0 0 266 266" version="1.1">
<g id="surface1">
<path style=" stroke:none;fill-rule:nonzero;fill:rgb(0%,98.823529%,52.941176%);fill-opacity:1;" d="M 116.507812 67.695312 L 118.238281 67.695312 L 136.324219 72.617188 L 138.453125 73.28125 L 139.515625 73.816406 L 140.449219 74.746094 L 141.246094 76.34375 L 141.246094 77.804688 L 140.316406 82.59375 L 139.515625 86.449219 L 138.984375 89.109375 L 138.585938 91.238281 L 138.453125 92.035156 L 138.71875 92.566406 L 141.644531 94.296875 L 143.773438 95.761719 L 145.902344 97.355469 L 147.230469 98.421875 L 149.09375 100.015625 L 150.421875 101.214844 L 152.152344 102.808594 L 152.417969 103.074219 L 153.347656 102.941406 L 158.402344 100.414062 L 165.054688 97.222656 L 166.382812 96.691406 L 167.179688 96.425781 L 168.113281 96.425781 L 168.777344 97.089844 L 169.441406 99.21875 L 170.105469 102.144531 L 170.773438 106.398438 L 171.039062 109.992188 L 171.039062 115.445312 L 170.773438 118.769531 L 170.105469 122.890625 L 169.441406 125.816406 L 168.378906 129.410156 L 167.179688 132.734375 L 165.984375 135.394531 L 164.652344 138.054688 L 162.925781 140.980469 L 161.59375 142.84375 L 161.0625 143.375 L 159.199219 143.242188 L 153.613281 142.441406 L 153.082031 141.910156 L 152.683594 139.648438 L 151.886719 135.925781 L 150.820312 132.203125 L 149.492188 128.742188 L 148.160156 125.816406 L 146.300781 122.625 L 145.367188 121.164062 L 144.039062 119.433594 L 143.242188 118.371094 L 141.777344 116.640625 L 139.914062 114.644531 L 137.789062 112.652344 L 135.527344 110.789062 L 132.867188 108.925781 L 129.542969 106.933594 L 126.617188 105.46875 L 122.890625 104.007812 L 119.832031 103.074219 L 116.375 102.277344 L 112.917969 101.746094 L 109.859375 101.480469 L 104.804688 101.480469 L 100.945312 101.878906 L 97.488281 102.542969 L 94.5625 103.339844 L 92.167969 104.140625 L 89.507812 105.203125 L 87.515625 106.132812 L 85.386719 107.199219 L 82.726562 108.792969 L 80.464844 110.390625 L 78.734375 111.71875 L 76.742188 113.449219 L 74.746094 115.3125 L 73.816406 116.375 L 72.484375 117.839844 L 71.15625 119.566406 L 69.558594 121.828125 L 68.097656 124.222656 L 66.632812 127.015625 L 65.570312 129.542969 L 64.503906 132.335938 L 63.574219 135.394531 L 62.910156 138.320312 L 62.378906 141.910156 L 62.242188 143.375 L 62.242188 150.554688 L 62.511719 153.347656 L 63.308594 157.207031 L 63.972656 159.734375 L 65.171875 163.324219 L 66.632812 166.648438 L 68.496094 170.238281 L 70.621094 173.433594 L 71.820312 175.027344 L 73.414062 176.890625 L 74.347656 177.953125 L 77.273438 180.878906 L 78.335938 181.8125 L 80.199219 183.273438 L 80.730469 183.671875 L 80.597656 184.605469 L 79.667969 186.863281 L 78.867188 188.59375 L 78.070312 190.457031 L 77.539062 191.253906 L 77.007812 191.519531 L 69.160156 191.519531 L 64.105469 190.855469 L 59.316406 189.789062 L 55.859375 188.726562 L 53.066406 187.664062 L 50.539062 186.597656 L 48.277344 185.402344 L 46.816406 184.605469 L 44.820312 183.40625 L 42.292969 181.679688 L 40.699219 180.480469 L 38.835938 179.019531 L 37.238281 177.554688 L 36.308594 176.625 L 35.511719 175.960938 L 34.578125 174.894531 L 33.914062 174.097656 L 33.914062 173.300781 L 34.847656 172.234375 L 37.105469 170.640625 L 43.492188 166.382812 L 46.417969 164.386719 L 47.082031 163.855469 L 47.214844 163.324219 L 46.152344 158.269531 L 45.617188 154.8125 L 45.351562 152.683594 L 45.21875 150.820312 L 45.085938 146.566406 L 44.953125 146.167969 L 43.757812 145.636719 L 40.566406 144.4375 L 37.371094 143.375 L 32.054688 141.511719 L 30.191406 140.582031 L 29.261719 139.78125 L 28.59375 138.453125 L 28.460938 136.988281 L 28.992188 134.597656 L 30.589844 128.609375 L 32.984375 119.699219 L 34.046875 116.109375 L 34.578125 115.046875 L 35.910156 113.847656 L 37.238281 113.316406 L 38.703125 113.316406 L 50.007812 115.578125 L 52.535156 116.109375 L 53.199219 115.976562 L 54.796875 113.449219 L 55.726562 111.984375 L 57.058594 110.125 L 58.652344 107.996094 L 60.382812 106 L 61.445312 104.671875 L 61.710938 104.671875 L 61.976562 104.140625 L 63.707031 102.410156 L 63.839844 101.613281 L 62.378906 98.421875 L 59.449219 92.433594 L 57.988281 89.375 L 57.457031 88.046875 L 57.457031 85.917969 L 58.121094 84.589844 L 59.183594 83.65625 L 62.511719 81.796875 L 65.96875 79.800781 L 67.695312 78.734375 L 69.160156 77.9375 L 71.289062 76.742188 L 74.082031 75.144531 L 77.007812 73.414062 L 78.46875 72.75 L 79.667969 72.617188 L 81.128906 73.148438 L 82.195312 73.949219 L 83.390625 75.542969 L 90.574219 86.316406 L 90.707031 86.449219 L 91.902344 86.316406 L 96.824219 85.253906 L 100.28125 84.722656 L 105.070312 84.453125 L 108.128906 84.320312 L 108.792969 83.65625 L 110.65625 78.335938 L 112.253906 73.816406 L 113.183594 71.15625 L 113.714844 69.824219 L 114.910156 68.496094 Z M 116.507812 67.695312 "/>
<path style=" stroke:none;fill-rule:nonzero;fill:rgb(24.313725%,39.607843%,86.666667%);fill-opacity:1;" d="M 190.191406 73.949219 L 194.445312 73.949219 L 198.4375 74.214844 L 202.160156 74.746094 L 206.148438 75.675781 L 209.742188 76.742188 L 213.464844 78.203125 L 216.789062 79.800781 L 219.449219 81.261719 L 222.375 83.125 L 224.636719 84.722656 L 226.367188 86.183594 L 227.828125 87.382812 L 229.824219 89.242188 L 231.6875 91.105469 L 231.820312 91.503906 L 230.621094 92.835938 L 229.558594 93.765625 L 228.09375 94.695312 L 226.632812 95.761719 L 225.035156 96.824219 L 222.109375 98.820312 L 220.382812 100.015625 L 218.519531 101.347656 L 218.386719 102.011719 L 219.582031 107.332031 L 220.246094 111.851562 L 220.515625 114.644531 L 220.78125 119.167969 L 222.109375 119.699219 L 234.214844 123.824219 L 235.542969 124.488281 L 236.605469 125.550781 L 237.273438 126.882812 L 237.273438 128.476562 L 236.472656 131.9375 L 233.679688 142.574219 L 232.21875 148.027344 L 231.6875 149.492188 L 231.152344 150.289062 L 229.957031 151.355469 L 228.894531 151.753906 L 227.429688 151.753906 L 222.90625 150.953125 L 215.726562 149.625 L 213.597656 149.226562 L 212.933594 149.226562 L 211.601562 151.089844 L 210.40625 153.082031 L 209.210938 154.8125 L 207.878906 156.675781 L 206.816406 158.003906 L 205.351562 159.734375 L 204.421875 160.796875 L 203.222656 162.128906 L 202.292969 163.058594 L 202.425781 164.253906 L 206.550781 172.5 L 208.011719 175.558594 L 208.675781 177.023438 L 208.941406 177.953125 L 208.941406 179.019531 L 208.410156 180.347656 L 207.214844 181.546875 L 204.023438 183.40625 L 201.097656 185.136719 L 197.636719 187.132812 L 194.710938 188.859375 L 191.519531 190.722656 L 188.726562 192.316406 L 187.796875 192.71875 L 186.332031 192.71875 L 185.003906 192.183594 L 183.9375 191.253906 L 182.742188 189.65625 L 181.410156 187.664062 L 179.949219 185.535156 L 177.421875 181.8125 L 175.960938 179.816406 L 175.425781 179.152344 L 174.097656 179.285156 L 169.308594 180.347656 L 164.386719 181.011719 L 159.734375 181.410156 L 158.003906 181.546875 L 157.472656 182.078125 L 156.007812 186.066406 L 154.148438 191.785156 L 152.949219 195.109375 L 152.417969 196.175781 L 151.488281 197.238281 L 150.289062 197.902344 L 149.757812 198.035156 L 148.5625 198.035156 L 145.503906 197.371094 L 140.183594 195.910156 L 134.464844 194.445312 L 130.339844 193.382812 L 127.679688 192.585938 L 126.484375 191.785156 L 125.550781 190.722656 L 125.152344 189.65625 L 125.152344 187.796875 L 126.484375 180.746094 L 127.679688 174.496094 L 127.679688 173.433594 L 127.015625 173.164062 L 124.222656 171.4375 L 121.695312 169.707031 L 119.566406 168.113281 L 118.105469 166.914062 L 116.242188 165.320312 L 114.777344 163.988281 L 113.714844 163.058594 L 113.316406 162.925781 L 110.257812 164.386719 L 102.808594 168.113281 L 100.148438 169.308594 L 98.820312 169.707031 L 97.621094 169.574219 L 96.957031 168.246094 L 96.027344 164.785156 L 95.359375 161.0625 L 94.960938 157.871094 L 94.828125 155.875 L 94.828125 150.554688 L 95.226562 146.433594 L 95.894531 142.574219 L 96.691406 139.25 L 98.152344 134.597656 L 99.75 130.738281 L 101.347656 127.546875 L 102.941406 124.886719 L 104.273438 122.890625 L 105.867188 122.890625 L 111.984375 123.691406 L 112.652344 123.957031 L 113.714844 129.144531 L 114.644531 132.601562 L 115.710938 135.660156 L 116.90625 138.453125 L 118.238281 141.113281 L 119.964844 143.90625 L 121.5625 146.167969 L 123.425781 148.429688 L 124.621094 149.757812 L 125.550781 150.820312 L 126.882812 152.152344 L 127.945312 153.082031 L 129.144531 154.148438 L 131.804688 156.140625 L 134.0625 157.605469 L 137.390625 159.46875 L 140.582031 160.929688 L 144.304688 162.261719 L 147.761719 163.191406 L 151.222656 163.855469 L 156.273438 164.386719 L 159.601562 164.386719 L 163.722656 163.988281 L 167.046875 163.457031 L 169.972656 162.792969 L 173.433594 161.726562 L 175.425781 160.929688 L 177.554688 160 L 180.878906 158.269531 L 183.40625 156.675781 L 185.667969 155.078125 L 187.929688 153.214844 L 189.257812 152.019531 L 190.191406 151.089844 L 190.457031 151.089844 L 190.722656 150.554688 L 192.050781 149.226562 L 192.183594 148.960938 L 192.449219 148.960938 L 192.71875 148.429688 L 194.046875 146.832031 L 195.777344 144.4375 L 197.371094 141.910156 L 199.101562 138.71875 L 200.695312 134.996094 L 202.027344 130.871094 L 202.824219 127.546875 L 203.355469 124.089844 L 203.621094 120.496094 L 203.621094 117.304688 L 203.355469 113.714844 L 202.824219 110.125 L 202.027344 106.800781 L 200.964844 103.339844 L 199.367188 99.484375 L 198.035156 96.824219 L 196.441406 94.164062 L 194.976562 92.035156 L 193.648438 90.308594 L 192.585938 88.976562 L 191.519531 87.914062 L 190.589844 86.847656 L 189.523438 85.785156 L 188.460938 84.855469 L 187.132812 83.65625 L 185.269531 82.195312 L 184.738281 81.660156 L 184.871094 80.996094 L 186.332031 77.40625 L 187.53125 74.613281 L 188.0625 74.082031 Z M 190.191406 73.949219 "/>
</g>
</svg>
